<svg xmlns="http://www.w3.org/2000/svg" viewBox="0 0 32.81 40.1"><defs><style>.cls-1{fill:#020202;}</style></defs><g id="Layer_2" data-name="Layer 2"><g id="Layer_1-2" data-name="Layer 1"><path class="cls-1" d="M32.81,40.1H2V38.23H0V2.37H5A3,3,0,0,1,5.62.68,1.61,1.61,0,0,1,6.89,0C8,0,8.62.79,8.74,2.37h4.41A3,3,0,0,1,13.76.68,1.59,1.59,0,0,1,15,0q1.66,0,1.86,2.37h4.61A3,3,0,0,1,22.1.68,1.59,1.59,0,0,1,23.37,0c1.11,0,1.72.79,1.85,2.37h5.62V4.24h2Zm-2.9-2.81V3.3H23.39a1.18,1.18,0,0,0,.43.82c.25.19.37.36.37.52,0,.47-.28.7-.82.7-1,0-1.62-.68-1.85-2H15.05a1.14,1.14,0,0,0,.43.82c.24.19.36.36.36.52,0,.47-.27.7-.82.7-1,0-1.61-.68-1.85-2H6.91a1.19,1.19,0,0,0,.44.82c.24.19.36.36.36.52,0,.47-.27.7-.82.7-1,0-1.62-.68-1.85-2H.94v34Zm2,1.87v-34h-1V38.23H2.91v.93Zm-10.55-8.9H9.05v-3h4.31V15.8L10,17.74l-1.5-2.53,5.63-3.28H17V27.3h4.31Z"/></g></g></svg>