<svg xmlns="http://www.w3.org/2000/svg" viewBox="0 0 40.22 22.29"><defs><style>.cls-1{fill:#020202;}</style></defs><g id="Layer_2" data-name="Layer 2"><g id="Layer_1-2" data-name="Layer 1"><path class="cls-1" d="M35.79,5.58a20.57,20.57,0,0,1,4.43,5.58,20.42,20.42,0,0,1-4.43,5.55,22.76,22.76,0,0,1-15.66,5.58A22.86,22.86,0,0,1,4.45,16.71,20.87,20.87,0,0,1,0,11.16,21,21,0,0,1,4.45,5.58,22.86,22.86,0,0,1,20.13,0,22.76,22.76,0,0,1,35.79,5.58Zm-8.25,5.58A7,7,0,0,0,25.36,6a7.23,7.23,0,0,0-5.25-2.13A7.34,7.34,0,0,0,17,4.55l-.77-1.76Q7.75,4.24,3.82,11.16a16,16,0,0,0,2.77,3.58A17.87,17.87,0,0,0,16.2,19.5a9.11,9.11,0,0,1-4-3.35,8.82,8.82,0,0,1-1.5-5,9.24,9.24,0,0,1,.59-3.24l1.88.59a7.11,7.11,0,0,0,1.66,7.79,7.22,7.22,0,0,0,5.25,2.12,7.22,7.22,0,0,0,5.25-2.12A6.92,6.92,0,0,0,27.54,11.16Zm-1.81,0a5.26,5.26,0,0,1-1.65,3.89,5.72,5.72,0,0,1-8,0,5.29,5.29,0,0,1-1.64-3.89,5.39,5.39,0,0,1,.36-1.95l5.74,2.6-2.7-5.69a5.35,5.35,0,0,1,2.23-.47,5.46,5.46,0,0,1,4,1.62A5.23,5.23,0,0,1,25.73,11.16ZM24,19.5Q32.49,18,36.4,11.16a16.2,16.2,0,0,0-2.79-3.61,17.87,17.87,0,0,0-9.7-4.76,9.23,9.23,0,0,1,4,3.3,8.9,8.9,0,0,1,1.54,5.07,8.75,8.75,0,0,1-1.51,5,9.23,9.23,0,0,1-4,3.35Z"/></g></g></svg>